<?xml version="1.0" encoding="UTF-8" standalone="no"?>
<svg
   viewBox="0 0 12.646 9.807"
   version="1.1"
   id="svg28"
   sodipodi:docname="logo.svg"
   inkscape:version="1.2.2 (b0a8486541, 2022-12-01, custom)"
   xmlns:inkscape="http://www.inkscape.org/namespaces/inkscape"
   xmlns:sodipodi="http://sodipodi.sourceforge.net/DTD/sodipodi-0.dtd"
   xmlns="http://www.w3.org/2000/svg"
   xmlns:svg="http://www.w3.org/2000/svg">
  <defs
     id="defs32" />
  <sodipodi:namedview
     id="namedview30"
     pagecolor="#ffffff"
     bordercolor="#666666"
     borderopacity="1.0"
     inkscape:showpageshadow="2"
     inkscape:pageopacity="0.0"
     inkscape:pagecheckerboard="0"
     inkscape:deskcolor="#d1d1d1"
     showgrid="false"
     showguides="true"
     inkscape:zoom="17.968143"
     inkscape:cx="23.931243"
     inkscape:cy="6.9567566"
     inkscape:window-width="1360"
     inkscape:window-height="714"
     inkscape:window-x="0"
     inkscape:window-y="30"
     inkscape:window-maximized="1"
     inkscape:current-layer="svg28" />
  <g
     transform="translate(-26.183 -20.799)"
     stroke-width=".26458"
     id="g8">
    <path
       d="m33.771 30.592c-1.2061-0.07635-2.3098-0.43773-3.0454-0.99711-0.08244-0.06268-0.26072-0.22083-0.39616-0.35139-0.37923-0.3656-0.62661-0.54306-1.0346-0.7421-0.40042-0.19534-0.8709-0.32996-1.3622-0.38976-0.25784-0.03141-0.87376-0.02691-1.1586 0.0084-0.45918 0.05687-0.43778 0.05562-0.40733 0.02345 0.01494-0.01577 0.12257-0.05285 0.23917-0.08229 1.395-0.35229 2.8133-0.0669 3.8251 0.7697 0.08962 0.07409 0.21588 0.17986 0.28059 0.23503 0.81793 0.69728 2.2738 1.0249 3.6827 0.82878 0.65611-0.09133 1.2298-0.26452 1.7936-0.54152 0.89188-0.43812 1.4576-1.0276 1.6112-1.6787 0.03454-0.14651 0.03415-0.42532-7.67e-4 -0.57489-0.08652-0.37026-0.37468-0.70731-0.77758-0.90958-0.59931-0.30083-1.3081-0.3143-2.5993-0.04933-0.57134 0.11725-0.73512 0.14327-1.0214 0.16232-0.57777 0.03846-1.2822-0.0747-2.1981-0.35306-0.50829-0.15449-0.56962-0.19537-0.1644-0.10958 0.55364 0.11722 1.0091 0.17258 1.4211 0.17276 0.62158 2.65e-4 0.82243-0.05085 1.7696-0.45035 0.99364-0.41913 1.8489-0.54256 2.6429-0.3815 0.89202 0.18093 1.571 0.73713 1.8486 1.5144 0.15293 0.42823 0.14589 1.0024-0.01788 1.4582-0.35075 0.97613-1.3435 1.8031-2.6315 2.1922-0.69424 0.20969-1.504 0.29633-2.2992 0.24601z"
       fill="#ffbc01"
       id="path4" />
    <path
       d="m30.793 30.585c-0.53097-0.05693-0.93559-0.19532-1.7228-0.58899-0.56547-0.28279-0.83465-0.38116-1.2807-0.46797-0.37208-0.07244-0.59661-0.08861-1.0495-0.07563-0.22527 0.0062-0.44527 0.01667-0.4889 0.02269-0.05634 0.0078-0.07568 0.0048-0.06676-0.0094 0.02003-0.03238 0.45302-0.28408 0.6718-0.39044 0.44066-0.21428 0.79425-0.30364 1.2032-0.30411 0.52229-5.03e-4 0.90681 0.12358 1.6359 0.52824 0.54472 0.30234 0.84455 0.42913 1.1882 0.50255 0.19178 0.04096 0.83122 0.04663 1.0048 9e-3 1.0918-0.23729 1.8851-1.028 2.1303-2.1235 0.03698-0.16516 0.04204-0.23507 0.04176-0.57714-3.44e-4 -0.41749-0.01545-0.54015-0.11823-0.95912-0.06036-0.24607-0.21379-0.7293-0.236-0.74335-0.0085-0.0055-0.13591 0.02034-0.28308 0.05714-0.14716 0.0368-0.35716 0.08093-0.4667 0.09806-0.26083 0.04082-0.82574 0.05555-1.0549 0.02753-0.2704-0.033-0.56245-0.10614-0.52861-0.13234 0.0047-0.0035 0.10176 0.0014 0.21572 0.01141 0.48958 0.04255 1.1234-0.07241 1.7335-0.31459 0.12714-0.05043 0.2382-0.09877 0.24678-0.10736 0.0087-0.0088-0.04046-0.18559-0.1119-0.40217-0.23216-0.70377-0.2931-1.0013-0.30575-1.4925-0.01048-0.40664 0.01552-0.61611 0.11241-0.90572 0.11618-0.34719 0.26845-0.59449 0.52393-0.85093 0.33467-0.33592 0.73208-0.5307 1.1956-0.58605 0.38798-0.04635 0.79129 0.05064 1.0864 0.26118 0.6898 0.49223 0.81902 1.5129 0.30454 2.4049-0.43468 0.75359-1.3458 1.4438-2.4187 1.832-0.04803 0.01737-0.09144 0.04234-0.09647 0.05541-0.0051 0.01308 0.02764 0.13644 0.0726 0.27406 0.25426 0.77843 0.342 1.2215 0.34166 1.7257-9.79e-4 1.4136-0.89921 2.6577-2.2277 3.085-0.36986 0.11902-0.88794 0.1754-1.2524 0.13629zm3.1485-5.7216c0.5307-0.28273 1.1134-0.75303 1.4343-1.1576 0.23209-0.2926 0.4146-0.64537 0.47728-0.92239 0.03924-0.17346 0.03941-0.47731 3.44e-4 -0.62458-0.10965-0.41344-0.41532-0.63331-0.87852-0.6319-0.48305 0.0014-0.9212 0.24548-1.2116 0.67469-0.13826 0.20441-0.22619 0.43542-0.28525 0.74951-0.04342 0.23092-0.04342 0.76499 1.2e-5 1.0282 0.07257 0.43979 0.21693 0.97655 0.26263 0.97655 0.01499 0 0.10533-0.04158 0.20075-0.09243z"
       fill="#07339e"
       id="path6" />
  </g>
</svg>
