<?xml version="1.0" encoding="UTF-8" standalone="no"?>
<svg
   viewBox="0 0 37.339428 9.807103"
   version="1.1"
   id="svg28"
   sodipodi:docname="logo-title"
   width="37.339428"
   height="9.8071032"
   inkscape:version="1.2.2 (b0a8486541, 2022-12-01, custom)"
   xmlns:inkscape="http://www.inkscape.org/namespaces/inkscape"
   xmlns:sodipodi="http://sodipodi.sourceforge.net/DTD/sodipodi-0.dtd"
   xmlns="http://www.w3.org/2000/svg"
   xmlns:svg="http://www.w3.org/2000/svg">
  <defs
     id="defs32" />
  <sodipodi:namedview
     id="namedview30"
     pagecolor="#ffffff"
     bordercolor="#666666"
     borderopacity="1.0"
     inkscape:showpageshadow="2"
     inkscape:pageopacity="0.0"
     inkscape:pagecheckerboard="0"
     inkscape:deskcolor="#d1d1d1"
     showgrid="false"
     showguides="true"
     inkscape:zoom="17.968143"
     inkscape:cx="23.931243"
     inkscape:cy="6.9567566"
     inkscape:window-width="1360"
     inkscape:window-height="714"
     inkscape:window-x="0"
     inkscape:window-y="30"
     inkscape:window-maximized="1"
     inkscape:current-layer="svg28">
    <sodipodi:guide
       position="14.299552,5.1203638"
       orientation="1,0"
       id="guide410"
       inkscape:locked="false" />
    <sodipodi:guide
       position="13.553902,4.3112953e-05"
       orientation="0,-1"
       id="guide412"
       inkscape:locked="false" />
    <sodipodi:guide
       position="15.622543,9.8070431"
       orientation="0,-1"
       id="guide414"
       inkscape:locked="false" />
  </sodipodi:namedview>
  <g
     transform="translate(-26.182262,-20.79894)"
     stroke-width="0.26458"
     id="g8">
    <path
       d="m 33.771,30.592 c -1.2061,-0.07635 -2.3098,-0.43773 -3.0454,-0.99711 -0.08244,-0.06268 -0.26072,-0.22083 -0.39616,-0.35139 -0.37923,-0.3656 -0.62661,-0.54306 -1.0346,-0.7421 -0.40042,-0.19534 -0.8709,-0.32996 -1.3622,-0.38976 -0.25784,-0.03141 -0.87376,-0.02691 -1.1586,0.0084 -0.45918,0.05687 -0.43778,0.05562 -0.40733,0.02345 0.01494,-0.01577 0.12257,-0.05285 0.23917,-0.08229 1.395,-0.35229 2.8133,-0.0669 3.8251,0.7697 0.08962,0.07409 0.21588,0.17986 0.28059,0.23503 0.81793,0.69728 2.2738,1.0249 3.6827,0.82878 0.65611,-0.09133 1.2298,-0.26452 1.7936,-0.54152 0.89188,-0.43812 1.4576,-1.0276 1.6112,-1.6787 0.03454,-0.14651 0.03415,-0.42532 -7.67e-4,-0.57489 -0.08652,-0.37026 -0.37468,-0.70731 -0.77758,-0.90958 -0.59931,-0.30083 -1.3081,-0.3143 -2.5993,-0.04933 -0.57134,0.11725 -0.73512,0.14327 -1.0214,0.16232 -0.57777,0.03846 -1.2822,-0.0747 -2.1981,-0.35306 -0.50829,-0.15449 -0.56962,-0.19537 -0.1644,-0.10958 0.55364,0.11722 1.0091,0.17258 1.4211,0.17276 0.62158,2.65e-4 0.82243,-0.05085 1.7696,-0.45035 0.99364,-0.41913 1.8489,-0.54256 2.6429,-0.3815 0.89202,0.18093 1.571,0.73713 1.8486,1.5144 0.15293,0.42823 0.14589,1.0024 -0.01788,1.4582 -0.35075,0.97613 -1.3435,1.8031 -2.6315,2.1922 -0.69424,0.20969 -1.504,0.29633 -2.2992,0.24601 z"
       fill="#ffbc01"
       id="path4" />
    <path
       d="M 30.793,30.585 C 30.26203,30.52807 29.85741,30.38968 29.0702,29.99601 28.50473,29.71322 28.23555,29.61485 27.7895,29.52804 27.41742,29.4556 27.19289,29.43943 26.74,29.45241 c -0.22527,0.0062 -0.44527,0.01667 -0.4889,0.02269 -0.05634,0.0078 -0.07568,0.0048 -0.06676,-0.0094 0.02003,-0.03238 0.45302,-0.28408 0.6718,-0.39044 0.44066,-0.21428 0.79425,-0.30364 1.2032,-0.30411 0.52229,-5.03e-4 0.90681,0.12358 1.6359,0.52824 0.54472,0.30234 0.84455,0.42913 1.1882,0.50255 0.19178,0.04096 0.83122,0.04663 1.0048,0.009 1.0918,-0.23729 1.8851,-1.028 2.1303,-2.1235 0.03698,-0.16516 0.04204,-0.23507 0.04176,-0.57714 -3.44e-4,-0.41749 -0.01545,-0.54015 -0.11823,-0.95912 -0.06036,-0.24607 -0.21379,-0.7293 -0.236,-0.74335 -0.0085,-0.0055 -0.13591,0.02034 -0.28308,0.05714 -0.14716,0.0368 -0.35716,0.08093 -0.4667,0.09806 -0.26083,0.04082 -0.82574,0.05555 -1.0549,0.02753 -0.2704,-0.033 -0.56245,-0.10614 -0.52861,-0.13234 0.0047,-0.0035 0.10176,0.0014 0.21572,0.01141 0.48958,0.04255 1.1234,-0.07241 1.7335,-0.31459 0.12714,-0.05043 0.2382,-0.09877 0.24678,-0.10736 0.0087,-0.0088 -0.04046,-0.18559 -0.1119,-0.40217 -0.23216,-0.70377 -0.2931,-1.0013 -0.30575,-1.4925 -0.01048,-0.40664 0.01552,-0.61611 0.11241,-0.90572 0.11618,-0.34719 0.26845,-0.59449 0.52393,-0.85093 0.33467,-0.33592 0.73208,-0.5307 1.1956,-0.58605 0.38798,-0.04635 0.79129,0.05064 1.0864,0.26118 0.6898,0.49223 0.81902,1.5129 0.30454,2.4049 -0.43468,0.75359 -1.3458,1.4438 -2.4187,1.832 -0.04803,0.01737 -0.09144,0.04234 -0.09647,0.05541 -0.0051,0.01308 0.02764,0.13644 0.0726,0.27406 0.25426,0.77843 0.342,1.2215 0.34166,1.7257 -9.79e-4,1.4136 -0.89921,2.6577 -2.2277,3.085 -0.36986,0.11902 -0.88794,0.1754 -1.2524,0.13629 z m 3.1485,-5.7216 c 0.5307,-0.28273 1.1134,-0.75303 1.4343,-1.1576 0.23209,-0.2926 0.4146,-0.64537 0.47728,-0.92239 0.03924,-0.17346 0.03941,-0.47731 3.44e-4,-0.62458 -0.10965,-0.41344 -0.41532,-0.63331 -0.87852,-0.6319 -0.48305,0.0014 -0.9212,0.24548 -1.2116,0.67469 -0.13826,0.20441 -0.22619,0.43542 -0.28525,0.74951 -0.04342,0.23092 -0.04342,0.76499 1.2e-5,1.0282 0.07257,0.43979 0.21693,0.97655 0.26263,0.97655 0.01499,0 0.10533,-0.04158 0.20075,-0.09243 z"
       fill="#07339e"
       id="path6" />
  </g>
  <g
     aria-label="Blaze"
     id="text304"
     style="font-style:italic;font-weight:bold;font-size:8.02118px;line-height:1.25;font-family:Montserrat;-inkscape-font-specification:'Montserrat Bold Italic';fill:#07339e;stroke-width:0.601596"
     transform="translate(-1.9615694,0.16606361)">
    <path
       d="m 20.972633,5.1002908 q 0.360954,0.1443813 0.553462,0.4331438 0.200529,0.2807413 0.200529,0.6898215 0,0.8743086 -0.689821,1.3234947 -0.689822,0.4491861 -1.83685,0.4491861 H 16.25618 l 1.122965,-5.6148261 h 2.711159 q 0.906393,0 1.395685,0.3368895 0.489292,0.3288684 0.489292,0.9464993 0,0.5133555 -0.27272,0.8823298 -0.264699,0.3609531 -0.729928,0.5534614 z M 18.470025,3.3596947 18.205326,4.6831895 h 1.323495 q 0.513356,0 0.794097,-0.2005295 0.288762,-0.2085507 0.288762,-0.5935674 0,-0.5293979 -0.826181,-0.5293979 z m 0.810139,3.6576582 q 0.545441,0 0.850246,-0.2085507 0.304804,-0.2085507 0.304804,-0.6015885 0,-0.577525 -0.842224,-0.577525 h -1.572151 l -0.27272,1.3876642 z"
       id="path2990" />
    <path
       d="m 23.4993,2.0442212 h 1.251305 L 23.56347,7.9959369 h -1.251304 z"
       id="path2992" />
    <path
       d="m 29.964361,3.6805419 -0.858266,4.315395 H 27.91896 l 0.08021,-0.4251226 q -0.537419,0.489292 -1.323495,0.489292 -0.505334,0 -0.930457,-0.2326142 -0.425122,-0.2326142 -0.6818,-0.665758 -0.248656,-0.4411649 -0.248656,-1.0347322 0,-0.713885 0.312826,-1.2833888 0.320847,-0.577525 0.866287,-0.8983722 0.54544,-0.3288684 1.203177,-0.3288684 0.994626,0 1.403707,0.6497156 l 0.112296,-0.5855462 z m -2.903667,3.3448322 q 0.368974,0 0.657737,-0.176466 0.288762,-0.1844871 0.449186,-0.5053343 0.160423,-0.3208472 0.160423,-0.7379486 0,-0.4411649 -0.264698,-0.6978427 -0.256678,-0.2566778 -0.721907,-0.2566778 -0.368974,0 -0.657736,0.1844872 -0.288763,0.176466 -0.449187,0.4973132 -0.160423,0.3208472 -0.160423,0.7379485 0,0.4411649 0.256678,0.6978427 0.264699,0.2566778 0.729927,0.2566778 z"
       id="path2994" />
    <path
       d="m 34.44819,4.4345329 -2.663032,2.5988624 h 2.213846 l -0.192509,0.9625416 h -3.850166 l 0.152402,-0.753991 2.663032,-2.5988623 h -2.077486 l 0.192509,-0.9625417 h 3.705785 z"
       id="path2996"
       style="fill:#ffbc01;fill-opacity:1" />
    <path
       d="m 39.300997,5.5173922 q 0,0.2967837 -0.07219,0.6577368 h -3.304726 q 0.06417,0.8823298 1.114944,0.8823298 0.328868,0 0.625652,-0.1042753 0.304804,-0.1042754 0.529398,-0.2967837 l 0.521376,0.8261815 q -0.360953,0.2887625 -0.826181,0.4331438 -0.465229,0.1443812 -0.978584,0.1443812 -0.665758,0 -1.171093,-0.2326142 Q 35.24228,7.5868567 34.96956,7.1456918 34.704861,6.7045269 34.704861,6.1270019 q 0,-0.713885 0.320847,-1.2833888 0.328869,-0.577525 0.906394,-0.8983722 0.577525,-0.3288684 1.315473,-0.3288684 0.625652,0 1.08286,0.2326142 0.465228,0.2326143 0.713885,0.665758 0.256677,0.4331437 0.256677,1.0026475 z m -2.10957,-0.9625416 q -0.441165,0 -0.74597,0.2406354 -0.304805,0.2326142 -0.433143,0.6497156 h 2.141655 q 0,-0.4171014 -0.264699,-0.6497156 -0.256678,-0.2406354 -0.697843,-0.2406354 z"
       id="path2998" />
  </g>
</svg>
