<?xml version="1.0" encoding="UTF-8"?>
<svg width="194.45" height="128.29" enable-background="new 0 0 612 792" version="1.1" viewBox="0 0 194.45 128.29" xml:space="preserve" xmlns="http://www.w3.org/2000/svg" xmlns:cc="http://creativecommons.org/ns#" xmlns:dc="http://purl.org/dc/elements/1.1/" xmlns:rdf="http://www.w3.org/1999/02/22-rdf-syntax-ns#"><metadata><rdf:RDF><cc:Work rdf:about=""><dc:format>image/svg+xml</dc:format><dc:type rdf:resource="http://purl.org/dc/dcmitype/StillImage"/><dc:title/></cc:Work></rdf:RDF></metadata><g fill="#fff">
<path d="m110.73 7.123c1.903 2.801 4.054 6.661 3.347 10.045-1.122 1.095-2.687 1.405-4.022 2.083-1.11-4.164-6.36-12.057-5.857-11.919l-0.059-1.774c2.54-1.152 4.456 0 6.591 1.565z"/><path d="m86.651 28.941c0.841 1.513-0.957 2.547-2.225 3.101l-1.646 0.361-10.147-6.666-0.016-0.993c0.948 0.6 1.557-1.244 2.619-1.119 4.125-0.208 8.776 1.956 11.415 5.316z"/><path d="m144.82 14.687c-1.272 1.048-2.63-0.508-3.408-1.637l-0.712-1.568 4.587-11.265 0.99-0.217c-0.473 1.022 1.462 1.308 1.551 2.363 0.999 4-0.207 9.05-3.008 12.324z"/><path d="m135.4 17.43c-2.715-1.799-6.003-2.343-8.94-0.641-4.508 2.627-7.504 8.275-8.688 13.343-0.155 0.677-1.158 4.342-0.489 4.926-4.397-3.799-8.262-8.282-14.477-7.764-7.709 0.677-13.403 7.661-11.547 15.825 0.508 2.275 1.227 4.125 2.43 6.083 3.083 4.995 8.5 11.474 13.807 14.056 11.557 5.572 14.879 4.264 16.326 2.756 0.036-0.053-17.115-4.452-23.664-24.628-5.527-16.979 18.87 7.209 18.369 7.268 1.465-0.154 2.999-0.187 3.934-1.555 0 0-0.149-5.085-0.038-7.792 0.161-3.57 1.506-16.383 7.608-13.26 3.598 1.827 4.294 6.226 4.241 10.022-0.073 8.624-2.282 17.114-5.704 24.898-0.987 2.268-2.09 4.453-3.108 6.718-0.018 0.05-0.701 1.486-0.363 1.534 3.878-0.234 8.032-6.968 9.747-10.335 2.949-5.759 5.227-12.441 6.218-18.905 0.77-5.179 1.442-11.43-0.633-16.408-0.988-2.472-2.808-4.738-5.029-6.141z"/><path d="m190.42 58.99c-0.949-0.726-2.108-1.252-2.981-1.64-2.127-1.043-4.422-1.592-6.697-2.193-3.622-0.934-7.281-1.658-11.009-2.129-2.037-0.258-4.107-0.468-6.184-0.528-6.34-0.306-15.771-0.28-20.892 4.327-2.625 2.369-3.582 4.608-1.965 7.581 4.816-8.364 24.845-4.973 27.952-4.716 4.645 0.388 9.127 1.239 13.604 2.603 1.237 0.363 2.444 0.742 3.729 0.999 1.395 0.3 2.953 0.455 4.309-0.116 0.912-0.387 1.965-1.197 1.636-2.292-0.234-0.735-0.817-1.376-1.502-1.896z"/><path d="m37.641 57.408c1.747-1.177 3.82-1.755 4.956-2.087 8.4-2.271 17.131-3.782 25.84-3.933 7.303-0.134 18.002 0.625 23.766 5.704 2.982 2.6 3.982 5.16 2.019 8.329-0.786-1.352-2.435-2.659-3.708-3.463-4.058-2.578-9.552-2.891-14.238-3.023-4.596-0.08-9.188 0.262-13.775 0.625-5.036 0.417-9.977 1.196-14.941 2.165-4.641 0.873-8.176 2.134-10.316 1.1-3.077-1.543-2.107-3.658 0.397-5.417z"/><path d="m27.855 59.319c3.575 6.416 1.636 14.094-2.812 19.439-6.663 8.055-13.805 9.499-13.805 9.831 0 0-0.897 25.108-2.437 24.62 0 0-5.453-0.373-7.764-2.68-1.566-1.604-0.787-34.225-0.993-44.245-0.205-8.632 0.37-9.376 0.37-9.376 4.243-6.895 14.276-7.787 20.881-3.986 2.659 1.507 5.057 3.695 6.56 6.397zm-8.505 0.791c-2.708-2.942-7.302-1.666-8.431 2.055l-0.218 16.874c0.02 0.262 1.99-0.414 4.504-2.812 3.295-3.093 6.882-9.942 5.089-14.639-0.224-0.518-0.531-1.019-0.944-1.478z"/><path d="m146.46 94.897c-2.091-0.413-1.887 1.725-5.286 4.691-4.638 4.054-8.146 1.206-8.042-5.057-0.376-0.629 15.162-6.587 15.69-8.409 1.848-6.583-0.203-16.026-8.218-17.762-1.652-0.378-3.469-0.545-5.519-0.026-10.297 2.457-14.016 29.243-6.915 38.043 7.195 8.781 20.063 0.392 22.771-9.502 2e-3 0-1.77-1.501-4.481-1.978zm-11.872-17.178c1.19-2.931 4.278-3.266 6.179-1.055 0.842 0.996 1.463 2.292 1.725 3.574 0.378 2.29-0.104 3.175-0.104 3.175-0.779 0.914-8.632 4.086-8.935 3.908-0.425-0.235-0.13-6.446 1.135-9.602z"/><path d="m93.989 85.885c-0.047-2.937-0.257-6.066-1.132-8.964-0.674-2.075-1.557-4.211-3.034-5.88-1.213-1.409-3.321-2.532-5.161-2.706-4.019-0.414-8.684 7.057-8.684 7.057-0.444-0.183-1.654-7.267-5.837-7.267-3.251 0-7.239 7.521-7.239 7.521 0-0.023-0.227-6.56-0.417-8.122-0.189-1.507-7.091-1.561-7.556 0.665-0.064 6.421-2.137 34.553 1.241 39.024 0.675 0.916 6.984 5.036 6.917 2.367-0.048-1.952 0.156-19.245 1.3-25.771 0.378-2.234 1.344-6.834 4.831-6.089 3.4 0.717 1.585 19.767 2.569 26.188 0.174 1.112 0.433 3.218 1.057 4.194 0.583 0.895 5.84 2.908 5.84 1.513 0-1.911 0.46-21.205 0.609-23.55 0.119-2.705-0.129-6.37 2.243-8.281 2.056-1.657 3.94 0.653 4.197 2.762 0.64 5.763 0.093 11.582 0.359 17.354 0.138 2.806 0.364 9.228 1.278 10.125 0.742 0.804 6.621 3.458 6.621 1.413-2e-3 -7.903 0.158-14.278-2e-3 -23.553z"/><path d="m121.12 74.454c-4.946-8.778-16.768-7.203-23.293-0.598-0.928 0.936-1.5 49.682 0.794 52.864 0.656 0.907 6.901 2.903 6.87 0.222 0-0.764 0.065-11.188 0.175-19.753 1.53 0.699 10.674-1.901 14.507-10.128 3.192-7.003 4.501-16.337 0.947-22.607zm-11.267 22.447c-2.137 1.85-3.879 1.899-3.879 1.899s0.311-21.659 0.327-21.671c0.067-0.351 1.434-1.484 3.498-1.237 1.277 0.119 2.433 0.855 3.3 1.892 3.9 4.941 1.001 15.504-3.246 19.117z"/><path d="m49.151 72.71c-1.592-3.28-4.219-5.471-8.411-5.652-4.159-0.179-9.022 1.067-11.03 5.156-0.166 0.362-0.261 0.699-0.322 0.985-0.169 0.836-0.1 1.646 0.332 2.488 0 0 1.933 3.054 3.001 2.228 1.347-1.033 2.554-2.228 3.914-3.226 1.512-1.118 5.281-3.584 6.736-0.948 0.687 1.181 0.626 3.314 0.477 4.619-0.013 0.415-0.066 0.865-0.147 1.25-10.167 0.835-20.712 8.304-21.524 18.819-0.332 4.31 0.693 9.637 5.229 11.245 4.832 1.679 9.195-2.178 11.995-5.694 1.643-2.017 3.088-4.195 4.572-6.328 0 0-0.242 9.768-0.136 11.103 0.36 2.906 4.747 0.07 5.441-0.265 1.473-0.657 1.564-7.716 1.592-8.431 0.136-6.41 1.968-19.694-1.719-27.349zm-11.977 24.581c-0.417 0.578-1.822 2.105-3.177 3.021-1.447 0.96-2.797 1.142-2.832-1.301 0-1.765 0.718-3.696 1.385-5.313 1.329-3.235 5.021-7.662 8.97-7.21 0-1e-3 -0.106 5.099-4.346 10.803z"/><path d="m172.63 70.499c-0.226-0.493-0.554-0.97-1.034-1.335-1.349-0.983-3.175-0.734-4.66-0.201-2.759 0.934-4.972 3.068-6.567 5.491-0.328 0.47-0.589 0.967-0.821 1.458 0.14-2.235 0.294-6.062-0.34-6.926-0.937-1.3-7.439-0.339-7.597 0.702-0.048 0.471 1.885 34.271 2.018 35.26 0.319 2.266-0.173 4.191 2.262 4.973 1.001 0.282 4.579 1.9 4.701-0.573 0.081-1.353-0.144-11.165-0.144-11.165-0.237-5.657 0.292-11.565 3.214-16.545 1.769-3.134 4.936-6.428 8.642-7.027 0.327-0.022 0.468-0.855 0.521-1.15 0.168-0.956 0.168-2.054-0.195-2.962z"/><path d="m192.46 93.1c-1.595-2.578-3.826-4.485-5.81-6.695-2.42-2.745-5.85-6.606-3.855-10.278 1.064-1.932 3.087-2.668 5.107-1.617 2.754 1.401 2.213 4.446 0.933 6.427-0.117 0.18 1.355 0.265 1.422 0.265 0.649 0 1.254-0.084 1.824-0.477 3.479-2.255 2.447-7.882-0.354-10.59-1.19-1.172-2.84-2.062-4.394-2.399-7.19-1.686-15.88 3.933-13.227 11.925 0.962 2.87 2.586 5.446 4.602 7.739 2.138 2.345 5.924 5.156 6.356 8.512 0.406 3.1-2.698 5.179-5.353 5.523-3.213 0.308-6.14-1.959-7.217-4.923-0.553-1.566-1.155-1.745-2.119-0.397-1.935 2.637-0.862 6.878 1.326 9.502 0.194 0.207 0.36 0.401 0.555 0.586 4.05 4.108 11.772 5.827 16.885 2.725 5.702-3.437 6.831-10.232 3.319-15.828z"/>
</g></svg>
