<?xml version="1.0" encoding="UTF-8"?>
<svg width="215" height="61" fill="none" version="1.1" viewBox="0 0 215 61" xmlns="http://www.w3.org/2000/svg" xmlns:cc="http://creativecommons.org/ns#" xmlns:dc="http://purl.org/dc/elements/1.1/" xmlns:rdf="http://www.w3.org/1999/02/22-rdf-syntax-ns#">
 <metadata>
  <rdf:RDF>
   <cc:Work rdf:about="">
    <dc:format>image/svg+xml</dc:format>
    <dc:type rdf:resource="http://purl.org/dc/dcmitype/StillImage"/>
    <dc:title/>
   </cc:Work>
  </rdf:RDF>
 </metadata>
 <g shape-rendering="auto">
  <path d="m23.664 0.0019531c-2.9064 0.08323-5.8013 2.1834-8.1484 5.9121-1.6513 2.6234-2.9075 5.9189-3.2637 8.4707-3.3375 1.0337-5.6711 1.7567-5.7227 1.7734-1.6846 0.5293-1.7393 0.57987-1.959 2.168-0.16313 1.2001-4.5703 35.285-4.5703 35.285l36.939 6.3887 0.0039-2e-3 -2e-3 -53.055c-0.31396-0.049982-0.64745-0.0014804-0.81635 0.048875-0.0033 0.00167-0.67132 0.20874-1.7949 0.55664-0.1881-0.60924-0.46292-1.3589-0.85742-2.1113-1.2717-2.427-3.1361-3.7096-5.3867-3.7129h-0.0078c-0.1565 0-0.3104 0.014034-0.4668 0.027344-0.0666-0.0799-0.13322-0.1578-0.20312-0.23438-0.9805-1.0487-2.2376-1.5606-3.7441-1.5156zm0.058594 1.9355c0.6825-0.01498 1.2569 0.1341 1.748 0.45703-0.7857 0.40783-1.5454 0.99376-2.2578 1.7578-1.8461 1.9809-3.2619 5.0552-3.8262 8.0215-1.7595 0.5443-3.4798 1.079-5.0645 1.5684 1.0005-4.6693 4.9143-11.675 9.4004-11.805zm5.0098 1.7832c2.2056 0.41782 3.2902 2.9122 3.748 4.4004-0.8506 0.26301-1.8165 0.56212-2.8652 0.88672-0.0216-1.4715-0.19701-3.5176-0.88281-5.2871zm-2.0098 0.22656c0.804 1.6779 0.97898 4.0538 0.95898 5.6602-1.9359 0.59922-4.047 1.2543-6.166 1.9102 0.5959-2.2822 1.725-4.5551 3.1133-6.0449 0.516-0.55431 1.2382-1.1725 2.0938-1.5254zm10.715 3.2129c-24.958-4.7734-12.479-2.3867 0 0zm-13.004 11.508c2.4056 0.01801 3.6328 0.62891 3.6328 0.62891l-1.8594 6.957s-2.0746-0.94386-4.5332-0.78906c-3.6056 0.2281-3.6422 2.5013-3.6055 3.0723 0.1964 3.1111 8.3803 3.7905 8.8398 11.078 0.3612 5.7329-3.0412 9.6552-7.9434 9.9648-5.8844 0.3712-9.123-3.0996-9.123-3.0996l1.2461-5.3047s3.261 2.4617 5.8711 2.2969c1.7046-0.1082 2.3136-1.4961 2.252-2.4766-0.2563-4.0583-6.9207-3.8179-7.3418-10.486-0.3546-5.6113 3.3294-11.298 11.461-11.811 0.3916-0.02518 0.75986-0.03382 1.1035-0.03125z" color="#000000" color-rendering="auto" dominant-baseline="auto" fill="#fff" image-rendering="auto" solid-color="#000000" stop-color="#000000" style="font-feature-settings:normal;font-variant-alternates:normal;font-variant-caps:normal;font-variant-east-asian:normal;font-variant-ligatures:normal;font-variant-numeric:normal;font-variant-position:normal;font-variation-settings:normal;inline-size:0;isolation:auto;mix-blend-mode:normal;shape-margin:0;shape-padding:0;text-decoration-color:#000000;text-decoration-line:none;text-decoration-style:solid;text-indent:0;text-orientation:mixed;text-transform:none;white-space:normal"/>
  <path d="m23.648-0.49609c-3.1367 0.090695-6.1564 2.3294-8.5566 6.1426-1.6267 2.5844-2.8244 5.7421-3.2461 8.3418-1.5334 0.47492-2.8923 0.89524-3.8359 1.1875-0.50356 0.15595-0.90337 0.27899-1.1816 0.36524-0.27609 0.08557-0.39011 0.12153-0.44922 0.14062-0.84529 0.26559-1.3645 0.40238-1.75 0.82812-0.38553 0.42575-0.44222 0.94929-0.55273 1.748v0.001954c-0.1714 1.261-4.5723 35.287-4.5723 35.287l-0.060547 0.47461 37.514 6.4883 16.553-4.1133-0.066407-0.44922s-1.6333-11.042-3.2715-22.121c-0.81909-5.5394-1.6376-11.087-2.2559-15.27-0.30911-2.0915-0.56937-3.8416-0.75195-5.0781-0.18258-1.2365-0.29637-2.017-0.29297-1.9922-0.076984-0.56072-0.54003-0.88265-0.97852-0.91992h-0.001953c-0.081951-0.006807-0.14481-0.008174-0.2832-0.011718-0.13934-0.00357-0.32496-0.00738-0.54102-0.011719-0.43211-0.008678-0.98733-0.018083-1.5352-0.027344-0.99479-0.016817-1.7943-0.028644-1.9648-0.03125-0.24352-0.23656-3.4705-3.3728-3.7773-3.6797-0.30928-0.30936-0.70385-0.38099-1.0254-0.39062s-0.5931 0.043514-0.78125 0.099609l-0.015625 0.0039062c-0.001075 3.397e-4 -0.004383 0.001489-0.005859 0.0019531-0.001281 4.374e-4 -0.001294 0.0010229-0.003907 0.0019532l-0.017578 0.0039062-0.003906 0.0019532c-0.020115 0.0062753-0.045299 0.013987-0.082031 0.025391-0.080346 0.024943-0.19969 0.061738-0.35352 0.10938-0.20588 0.063757-0.55728 0.17327-0.88086 0.27344-0.18522-0.5411-0.37931-1.1092-0.70508-1.7305-1.3312-2.5406-3.3859-3.9769-5.8262-3.9805h-0.009766c-0.092384 0-0.16657 0.0079488-0.25 0.013672-0.017479-0.019724-0.032681-0.038764-0.050781-0.058594l-0.001953-0.0019531-0.001953-0.0019532c-1.0703-1.1447-2.4962-1.7199-4.123-1.6719h-0.001953zm0.029296 0.99805h0.001954c1.3853-0.041328 2.473 0.40522 3.3633 1.3574 0.060993 0.067 0.12043 0.13711 0.18359 0.21289l0.16797 0.20117 0.25781-0.023438c0.16021-0.013634 0.30119-0.025391 0.42578-0.025391h0.007813c2.0609 0.0030402 3.7312 1.1319 4.9434 3.4453 0.37572 0.71659 0.64277 1.4377 0.82422 2.0254l0.14648 0.47852 0.47852-0.14844c0.56176-0.17394 1.0105-0.31093 1.3184-0.40625 0.15391-0.047662 0.27266-0.086228 0.35352-0.11133 0.040425-0.01255 0.0705-0.020694 0.091797-0.027344 0.010648-0.0033252 0.019002-0.0057943 0.02539-0.0078126 0.001873-5.915e-4 0.00413-0.0014015 0.00586-0.0019531 7.12e-4 -2.271e-4 0.001201-0.0017116 0.001953-0.0019531 4.57e-4 -1.538e-4 0.001254 2.347e-4 0.001953 0 0.083359-0.023944 0.28254-0.059918 0.45703-0.054688 0.17826 0.0053437 0.30414 0.054128 0.34766 0.097656 0.38738 0.38738 3.9297 3.8281 3.9297 3.8281l0.14258 0.13867 0.19922 0.001953s1.0676 0.016653 2.1621 0.035156c0.54727 0.009252 1.1012 0.018706 1.5312 0.027344 0.21505 0.004319 0.39918 0.008236 0.53516 0.011719 0.13598 0.003482 0.25485 0.010187 0.22656 0.007812 3.93e-4 3.3e-5 0.066151 0.014061 0.072265 0.058594 0.013802 0.10052 0.11233 0.76727 0.29492 2.0039 0.1826 1.2366 0.44089 2.9866 0.75 5.0781 0.61822 4.183 1.4387 9.7302 2.2578 15.27 1.6049 10.854 3.1408 21.237 3.2051 21.672l-15.469 3.8457-36.361-6.2891c0.11569-0.89447 4.355-33.683 4.5078-34.807 0.10921-0.78934 0.18751-1.0835 0.30469-1.2129 0.11718-0.1294 0.46735-0.28317 1.3066-0.54688h0.0019531l0.0019531-0.001954c-0.032876 0.010641 0.16329-0.050517 0.44141-0.13672s0.68006-0.20929 1.1836-0.36524c1.0071-0.31189 2.425-0.75072 4.0938-1.2676l0.30273-0.09375 0.042969-0.31641c0.34209-2.4507 1.5817-5.713 3.1934-8.2734 2.2934-3.6435 5.0628-5.6011 7.7383-5.6777zm0.029297 0.93555c-2.4988 0.072323-4.6905 1.9941-6.4004 4.4102-1.7099 2.416-2.9552 5.3739-3.4727 7.7891l-0.17969 0.83594 0.81641-0.25195c1.5852-0.48956 3.3053-1.0242 5.0645-1.5684l0.28711-0.089844 0.05664-0.29492c0.54748-2.8779 1.9422-5.8881 3.6992-7.7734 0.67854-0.72773 1.3943-1.278 2.123-1.6562l0.75586-0.39258-0.71289-0.46875c-0.5813-0.38224-1.2714-0.55578-2.0332-0.53906h-0.001954-0.001953zm0.025391 1h0.003906c0.27196-0.005663 0.43916 0.11915 0.66016 0.16992-0.52622 0.3672-1.0657 0.68694-1.5488 1.2051-1.8692 2.0057-3.2345 5.006-3.8516 7.9609-1.3503 0.41785-2.6422 0.81705-3.8965 1.2051 0.57324-2.1042 1.5951-4.5345 3.0234-6.5527 1.6175-2.2855 3.6233-3.9288 5.6094-3.9883zm4.209 0.62305 0.32422 0.83984c0.64918 1.675 0.82849 3.6765 0.84961 5.1152l0.009766 0.66797 0.63867-0.19727c1.0488-0.32462 2.0148-0.62377 2.8652-0.88672l0.47656-0.14844-0.14648-0.47656c-0.23846-0.77514-0.63639-1.8138-1.2871-2.7422-0.65072-0.92835-1.5788-1.7639-2.8457-2.0039l-0.88477-0.16797zm-0.9707 0.24414-0.4375 0.18164c-0.95397 0.39348-1.7212 1.0574-2.2695 1.6465-1.4684 1.5763-2.6181 3.9051-3.2324 6.2578l-0.22656 0.86914 0.85742-0.26562c2.119-0.65592 4.2321-1.309 6.168-1.9082l0.34766-0.10938 0.003907-0.36328c0.020528-1.6487-0.13655-4.0626-1.0078-5.8809l-0.20312-0.42773zm2.4922 1.2793c0.53583 0.29563 1.0167 0.6892 1.3906 1.2227 0.45426 0.64807 0.71146 1.3618 0.9375 2.0039-0.53757 0.16633-1.1152 0.34648-1.7246 0.53516-0.045718-1.1341-0.23365-2.4335-0.60352-3.7617zm-3.0273 0.17578c0.51235 1.3975 0.71673 3.1187 0.72461 4.4863-1.5279 0.47296-3.1668 0.97957-4.8164 1.4902 0.61954-1.8867 1.5289-3.7163 2.6523-4.9219v-0.0019531c0.36299-0.38994 0.90619-0.73583 1.4395-1.0527z" color="#000000" color-rendering="auto" dominant-baseline="auto" image-rendering="auto" solid-color="#000000" stop-color="#000000" style="font-feature-settings:normal;font-variant-alternates:normal;font-variant-caps:normal;font-variant-east-asian:normal;font-variant-ligatures:normal;font-variant-numeric:normal;font-variant-position:normal;font-variation-settings:normal;inline-size:0;isolation:auto;mix-blend-mode:normal;shape-margin:0;shape-padding:0;text-decoration-color:#000000;text-decoration-line:none;text-decoration-style:solid;text-indent:0;text-orientation:mixed;text-transform:none;white-space:normal"/>
 </g>
 <g>
  <path d="m36.441 6.3516 0.001953 54.287 17.068-4.2422-0.066407-0.44922s-1.6333-11.041-3.2715-22.119c-0.81909-5.5392-1.6396-11.089-2.2578-15.271-0.30911-2.0914-0.56742-3.8397-0.75-5.0762-0.18258-1.2365-0.29638-2.0189-0.29297-1.9941-0.077494-0.56308-0.54194-0.88117-0.98047-0.91797-0.08279-0.006949-0.14386-0.008149-0.2832-0.011718s-0.32496-0.00738-0.54102-0.011719c-0.43211-0.008678-0.98733-0.018083-1.5352-0.027344-0.9938-0.0168-1.7909-0.028622-1.9629-0.03125-0.24043-0.23356-3.4722-3.3726-3.7793-3.6797-0.22995-0.22997-0.51766-0.33005-0.77539-0.36914l-0.57422-0.085938zm1 1.5098c0.82329 0.80778 3.5723 3.4805 3.5723 3.4805l0.14258 0.13672 0.19727 0.003906s1.0676 0.016653 2.1621 0.035156c0.54727 0.009252 1.1031 0.018706 1.5332 0.027344 0.21505 0.004319 0.39918 0.008236 0.53516 0.011719s0.25485 0.010187 0.22656 0.007812c-0.002334-1.96e-4 0.066359 0.015679 0.072265 0.058594 0.013806 0.10055 0.11233 0.76536 0.29492 2.002 0.1826 1.2366 0.44089 2.9867 0.75 5.0781 0.61822 4.1828 1.4387 9.7323 2.2578 15.271 1.6049 10.853 3.1408 21.235 3.2051 21.67l-14.947 3.7148-0.001953-51.498z" color="#000000" color-rendering="auto" dominant-baseline="auto" image-rendering="auto" shape-rendering="auto" solid-color="#000000" stop-color="#000000" style="font-feature-settings:normal;font-variant-alternates:normal;font-variant-caps:normal;font-variant-east-asian:normal;font-variant-ligatures:normal;font-variant-numeric:normal;font-variant-position:normal;font-variation-settings:normal;inline-size:0;isolation:auto;mix-blend-mode:normal;shape-margin:0;shape-padding:0;text-decoration-color:#000000;text-decoration-line:none;text-decoration-style:solid;text-indent:0;text-orientation:mixed;text-transform:none;white-space:normal"/>
 </g>
 <g>
  <path d="m23.299 18.201c-4.1769 0.26336-7.2743 1.8708-9.2598 4.1641-1.9854 2.2933-2.8548 5.2507-2.6699 8.1758 0.22103 3.5002 2.1554 5.2901 3.9375 6.5938 0.89105 0.65185 1.7452 1.2063 2.3594 1.8066 0.61418 0.60033 0.99141 1.2097 1.0469 2.0879 0.02298 0.37238-0.089947 0.8602-0.36719 1.2344-0.27764 0.37472-0.69667 0.6632-1.418 0.70898-1.1358 0.071715-2.5497-0.45504-3.6523-1.0293-1.1027-0.57426-1.8867-1.166-1.8867-1.166l-0.61133-0.46094-1.4844 6.3086 0.18164 0.19531s3.4301 3.6421 9.5215 3.2578c5.1528-0.32542 8.7866-4.5503 8.4121-10.494-0.24142-3.8289-2.5626-5.9846-4.7344-7.4844-1.0859-0.74986-2.1429-1.3571-2.9023-1.9395-0.75949-0.58235-1.1697-1.0933-1.2051-1.6543-0.014911-0.232-0.011195-0.81952 0.35156-1.3516 0.36276-0.53204 1.0906-1.084 2.7891-1.1914 2.3138-0.14568 4.293 0.74609 4.293 0.74609l0.53711 0.24414 2.1191-7.9219-0.36719-0.18164s-0.47257-0.22987-1.3086-0.41406c-0.83602-0.1842-2.0675-0.33814-3.6816-0.23438zm0.064453 0.99805c1.5187-0.097634 2.6537 0.047937 3.4023 0.21289 0.48298 0.10641 0.53731 0.15165 0.69531 0.21484l-1.5996 5.9844c-0.6302-0.24766-2.1262-0.77824-4.2188-0.64648-1.9072 0.12065-3.0022 0.82037-3.5508 1.625-0.54862 0.80463-0.54523 1.6415-0.52344 1.9805 0.06355 0.9936 0.74953 1.7355 1.5938 2.3828 0.84476 0.64774 1.9011 1.249 2.9434 1.9688 2.0846 1.4395 4.0866 3.2659 4.3047 6.7246 0.34791 5.522-2.8249 9.1398-7.4766 9.4336-5.4291 0.34248-8.277-2.5375-8.5312-2.8008l1.0137-4.3145c0.32823 0.22947 0.5842 0.44119 1.3984 0.86523 1.1803 0.61469 2.7015 1.2337 4.1758 1.1406 0.9833-0.062415 1.7205-0.52058 2.1582-1.1113 0.4377-0.59075 0.60069-1.2866 0.5625-1.8945-0.072687-1.1509-0.62493-2.0338-1.3457-2.7383-0.72077-0.70451-1.6088-1.2694-2.4688-1.8984-1.7198-1.2581-3.3292-2.6814-3.5293-5.8496-0.16975-2.6862 0.62619-5.3781 2.4277-7.459s4.6137-3.571 8.5684-3.8203z" color="#000000" color-rendering="auto" dominant-baseline="auto" image-rendering="auto" shape-rendering="auto" solid-color="#000000" stop-color="#000000" style="font-feature-settings:normal;font-variant-alternates:normal;font-variant-caps:normal;font-variant-east-asian:normal;font-variant-ligatures:normal;font-variant-numeric:normal;font-variant-position:normal;font-variation-settings:normal;inline-size:0;isolation:auto;mix-blend-mode:normal;shape-margin:0;shape-padding:0;text-decoration-color:#000000;text-decoration-line:none;text-decoration-style:solid;text-indent:0;text-orientation:mixed;text-transform:none;white-space:normal"/>
 </g>
 <g fill="#fff">
  <path d="m74.032 33.864c-1.8409-0.9989-2.787-1.8409-2.787-2.9983 0-1.4727 1.3142-2.4188 3.3665-2.4188 2.389 0 4.5221 0.9989 4.5221 0.9989l1.6824-5.1545s-1.547-1.2102-6.1005-1.2102c-6.3367 0-10.728 3.6289-10.728 8.7306 0 2.8926 2.0506 5.1017 4.7863 6.6784 2.2091 1.2614 2.9983 2.1563 2.9983 3.4705 0 1.3671-1.1045 2.4716-3.1551 2.4716-3.0561 0-5.9421-1.5784-5.9421-1.5784l-1.788 5.1545s2.6664 1.7881 7.1522 1.7881c6.5216 0 11.202-3.208 11.202-8.9932-0.0017-3.1006-2.3676-5.3097-5.209-6.9392z"/>
  <path d="m100.01 23.03c-3.2082 0-5.7326 1.5256-7.6775 3.8387l-0.1057-0.0529 2.7869-14.567h-7.2579l-7.0466 37.076h7.2579l2.4188-12.673c0.946-4.7863 3.4176-7.7301 5.7324-7.7301 1.6295 0 2.2619 1.1045 2.2619 2.6829 0 0.9989-0.1057 2.2091-0.3154 3.208l-2.7341 14.514h7.2583l2.839-14.988c0.316-1.5784 0.527-3.4704 0.527-4.7335-3e-3 -4.1028-2.159-6.5744-5.945-6.5744z"/>
  <path d="m122.36 23.03c-8.731 0-14.514 7.8887-14.514 16.67 0 5.6267 3.47 10.149 9.992 10.149 8.572 0 14.357-7.6773 14.357-16.67 0-5.2057-3.051-10.149-9.835-10.149zm-3.576 21.247c-2.472 0-3.524-2.1034-3.524-4.7335 0-4.154 2.157-10.938 6.101-10.938 2.577 0 3.417 2.209 3.417 4.3653 0 4.4693-2.154 11.306-5.994 11.306z"/>
  <path d="m150.76 23.03c-4.899 0-7.679 4.3125-7.679 4.3125h-0.104l0.421-3.8915h-6.416c-0.315 2.6301-0.895 6.6256-1.472 9.6239l-5.049 26.557h7.258l1.997-10.728h0.159s1.489 0.9461 4.26 0.9461c8.519 0 14.093-8.729 14.093-17.565 0-4.8887-2.157-9.2541-7.468-9.2541zm-6.942 21.351c-1.884 0-2.999-1.0517-2.999-1.0517l1.21-6.784c0.842-4.5222 3.208-7.5205 5.733-7.5205 2.209 0 2.892 2.0506 2.892 3.9972 0 4.6806-2.787 11.359-6.836 11.359z"/>
  <path d="m168.59 12.617c-2.313 0-4.154 1.8409-4.154 4.2068 0 2.1563 1.367 3.629 3.418 3.629h0.105c2.262 0 4.207-1.5256 4.26-4.2068 0-2.1035-1.42-3.629-3.629-3.629z"/>
  <path d="m158.44 49.324h7.256l4.945-25.715h-7.311l-4.89 25.715z"/>
  <path d="m189.1 23.556h-5.049l0.262-1.2102c0.421-2.4716 1.894-4.6807 4.313-4.6807 1.291 0 2.313 0.3682 2.313 0.3682l1.42-5.6795s-1.262-0.6307-3.945-0.6307c-2.577 0-5.152 0.7363-7.099 2.4187-2.472 2.1035-3.629 5.1529-4.207 8.204l-0.209 1.2102h-3.367l-1.052 5.4699h3.367l-3.839 20.299h7.258l3.839-20.299h4.996l0.999-5.4699z"/>
  <path d="m206.56 23.609s-4.537 11.43-6.574 17.669h-0.106c-0.138-2.0093-1.788-17.669-1.788-17.669h-7.626l4.367 23.611c0.106 0.5251 0.053 0.8421-0.158 1.2102-0.843 1.6296-2.262 3.208-3.945 4.3654-1.367 0.9988-2.892 1.6295-4.101 2.0505l1.998 6.1534c1.473-0.3153 4.522-1.5255 7.099-3.9443 3.314-3.1023 6.363-7.8886 9.518-14.41l8.888-19.038h-7.572v0.0017z"/>
  <g transform="translate(1.1211 .75197)" shape-rendering="auto">
   <path d="m45.851 11.066c-0.218-0.0183-4.4894-0.0832-4.4894-0.0832s-3.5722-3.4691-3.9251-3.822c-0.1315-0.13151-0.3096-0.19976-0.4961-0.22805l0.0017 53.066 16.008-3.9784s-6.5319-44.162-6.5735-44.465c-0.0417-0.303-0.308-0.4711-0.5261-0.4894z" color="#000000" color-rendering="auto" dominant-baseline="auto" image-rendering="auto" solid-color="#000000" stop-color="#000000" style="font-feature-settings:normal;font-variant-alternates:normal;font-variant-caps:normal;font-variant-east-asian:normal;font-variant-ligatures:normal;font-variant-numeric:normal;font-variant-position:normal;font-variation-settings:normal;inline-size:0;isolation:auto;mix-blend-mode:normal;shape-margin:0;shape-padding:0;text-decoration-color:#000000;text-decoration-line:none;text-decoration-style:solid;text-indent:0;text-orientation:mixed;text-transform:none;white-space:normal"/>
   <path d="m36.441 6.3516 2e-3 54.287 17.068-4.2422-0.06641-0.44922s-1.6333-11.041-3.2715-22.119c-0.81909-5.5392-1.6396-11.089-2.2578-15.271-0.30911-2.0914-0.56742-3.8397-0.75-5.0762-0.18258-1.2365-0.29638-2.0189-0.29297-1.9941-0.07749-0.56308-0.54194-0.88117-0.98047-0.91797-0.08279-0.0069-0.14386-0.0081-0.2832-0.01172-0.13934-0.0036-0.32496-0.0074-0.54102-0.01172-0.43211-0.0087-0.98733-0.01808-1.5352-0.02734-0.9938-0.0168-1.7909-0.02862-1.9629-0.03125-0.24048-0.23356-3.4723-3.3726-3.7793-3.6797-0.22995-0.22997-0.51766-0.33005-0.77539-0.36914zm1 1.5098c0.82329 0.80778 3.5723 3.4805 3.5723 3.4805l0.14258 0.13672 0.19727 0.0039s1.0676 0.01665 2.1621 0.03516c0.54727 0.0093 1.1031 0.01871 1.5332 0.02734 0.21505 0.0043 0.39918 0.0082 0.53516 0.01172 0.13598 0.0035 0.25485 0.01019 0.22656 0.0078-0.0023-1.96e-4 0.06636 0.01568 0.07227 0.05859 0.01381 0.10055 0.11233 0.76536 0.29492 2.002 0.1826 1.2366 0.44089 2.9867 0.75 5.0781 0.61822 4.1828 1.4387 9.7323 2.2578 15.271 1.6049 10.853 3.1408 21.235 3.2051 21.67l-14.947 3.7148z" color="#000000" color-rendering="auto" dominant-baseline="auto" image-rendering="auto" solid-color="#000000" stop-color="#000000" style="font-feature-settings:normal;font-variant-alternates:normal;font-variant-caps:normal;font-variant-east-asian:normal;font-variant-ligatures:normal;font-variant-numeric:normal;font-variant-position:normal;font-variation-settings:normal;inline-size:0;isolation:auto;mix-blend-mode:normal;shape-margin:0;shape-padding:0;text-decoration-color:#000000;text-decoration-line:none;text-decoration-style:solid;text-indent:0;text-orientation:mixed;text-transform:none;white-space:normal"/>
  </g>
 </g>
</svg>
