<svg enable-background="new 0 0 233.5762634 56.0056725" version="1.0" viewBox="0 0 233.58 56.006" xml:space="preserve" xmlns="http://www.w3.org/2000/svg" xmlns:cc="http://creativecommons.org/ns#" xmlns:dc="http://purl.org/dc/elements/1.1/" xmlns:rdf="http://www.w3.org/1999/02/22-rdf-syntax-ns#"><metadata><rdf:RDF><cc:Work rdf:about=""><dc:format>image/svg+xml</dc:format><dc:type rdf:resource="http://purl.org/dc/dcmitype/StillImage"/><dc:title/></cc:Work></rdf:RDF></metadata>
<g fill="#fff">
	<path d="m135.47 29.804c0-5.5309-2.3676-10.418-10.375-10.418-4.1081 0-7.3715 1.1709-9.1408 2.1957l1.2968 4.4373c1.629-1.022 4.2283-1.8637 6.6816-1.8637 4.0537-0.0057278 4.7179 2.2873 4.7179 3.7617v0.35498c-8.8488-0.014318-14.443 3.0431-14.443 9.2696 0 3.8046 2.8399 7.3716 7.8039 7.3716 3.0288 0 5.588-1.2224 7.1167-3.1519h0.14888s1.0078 4.2168 6.5815 2.6051c-0.28342-1.7663-0.3893-3.6271-0.3893-5.8887v-8.6742zm-6.6015 5.84c0 0.44659-0.037216 0.91036-0.16896 1.3083-0.50967 1.7033-2.2673 3.129-4.4545 3.129-1.8464 0-3.295-1.0449-3.295-3.2349 0-3.3494 3.6987-4.2712 7.9185-4.2483"/>
	<path d="m0 11.861s5.7799 23.646 6.6989 27.477c1.0821 4.4774 3.0202 6.132 8.6141 5.0299l3.6128-14.663c0.91322-3.6328 1.5344-6.238 2.1242-9.9395h0.10012c0.40939 3.7388 0.99919 6.3067 1.7463 9.951 0 0 1.4743 6.6616 2.2387 10.151 0.74426 3.4897 2.8398 5.6912 8.3278 4.5003l8.5997-32.507h-6.9423l-2.9514 14.062c-0.78156 4.0737-1.4916 7.2829-2.0441 11.016h-0.10021c-0.49807-3.693-1.1308-6.7704-1.9438-10.761l-3.0574-14.317h-7.2428l-3.2636 13.95c-0.93043 4.2598-1.8007 7.6751-2.3475 11.291h-0.094442c-0.56394-3.3924-1.3283-7.7123-2.1385-11.812 0 0-1.9381-9.9882-2.6222-13.429"/>
	<path d="m61.409 29.804c0-5.5309-2.3733-10.418-10.38-10.418-4.0965 0-7.3658 1.1709-9.1349 2.1957l1.2968 4.4373c1.6232-1.022 4.2198-1.8637 6.6817-1.8637 4.0536-0.0057278 4.7178 2.2873 4.7178 3.7617v0.35498c-8.8487-0.014318-14.448 3.0431-14.448 9.2696 0 3.8046 2.8513 7.3716 7.7924 7.3716 3.0573 0 5.5939-1.2224 7.1226-3.1519h0.15446s1.0134 4.2168 6.5815 2.6051c-0.28621-1.7663-0.38353-3.6271-0.38353-5.8887v-8.6742zm-6.6072 5.84c0 0.44659-0.037216 0.91036-0.1632 1.3083-0.51545 1.7033-2.2731 3.129-4.4659 3.129-1.8351 0-3.2894-1.0449-3.2894-3.2349 0-3.3494 3.6986-4.2712 7.9185-4.2483"/>
	<polygon points="65.012 11.861 65.012 44.356 71.619 44.356 71.619 37.465 71.619 11.861"/>
	<path d="m155.75 11.861v23.976c0 3.3094 0.62115 5.6167 1.958 7.031 1.1738 1.2396 3.0946 2.0469 5.382 2.0469 1.964 0 3.8848-0.37789 4.7923-0.7071l-0.0802-5.1616c-0.67848 0.15745-1.4543 0.292-2.5193 0.292-2.2558 0-3.0001-1.4285-3.0001-4.4001v-9.178h5.7542v-6.2093h-5.7542v-7.6894"/>
	<path d="m138.68 19.95v24.417h6.8305v-12.505c0-0.67275 0.042801-1.2539 0.14886-1.7921 0.50951-2.6366 2.5105-4.3056 5.3934-4.3056 0.80444 0 1.3512 0.088747 1.9582 0.18322v-6.4011c-0.50969-0.091602-0.856-0.14028-1.4829-0.14028-2.5565 0-5.4536 1.6232-6.676 5.1587h-0.16879v-4.6148"/>
	<path d="m75.456 19.95v24.417h6.6558v-14.331c0-0.67275 0.074432-1.3598 0.31207-1.981 0.54114-1.4514 1.8838-3.1319 4.0394-3.1319 2.6795 0 3.9449 2.2616 3.9449 5.5251v13.919h6.6388v-14.503c0-0.63267 0.088768-1.4085 0.27468-1.9696 0.53257-1.6461 1.9868-2.9715 3.9966-2.9715 2.7081 0 4.0193 2.2129 4.0193 6.0605v13.383h6.6329v-14.397c0-7.5634-3.8475-10.564-8.2161-10.564-1.9208 0-3.4495 0.47236-4.8238 1.3197-1.1623 0.71282-2.1813 1.7177-3.0946 3.0317h-0.10012c-1.0506-2.628-3.5183-4.3514-6.7419-4.3514-4.1337 0-6.0117 2.087-7.1167 3.8504h-0.10029v-3.3065"/>
	<path d="m203.79 18.854c1.3054 0 2.4046-0.68134 2.5477-1.5573l1.294-14.657c0-1.4514-1.709-2.6395-3.8418-2.6395-2.1443 0-3.8419 1.188-3.8419 2.6395l1.3054 14.657c0.13751 0.876 1.231 1.5573 2.5365 1.5573"/>
	<path d="m195.85 23.441c0.64685-1.1451 0.60963-2.4162-0.08876-2.983l-12.081-8.448c-1.2567-0.73286-3.1376 0.14029-4.2139 1.9896-1.0735 1.8465-0.856 3.9191 0.37497 4.6377l13.375 6.2007c0.856 0.32063 1.9753-0.27483 2.6339-1.4085"/>
	<path d="m211.72 23.429c0.68405 1.1337 1.8034 1.7291 2.6365 1.4257l13.375-6.2179c1.2425-0.73286 1.4286-2.7855 0.37794-4.632-1.0735-1.8493-2.9659-2.7168-4.2197-1.9982l-12.084 8.4394c-0.66991 0.57542-0.71849 1.8522-0.07164 2.9945"/>
	<path d="m203.79 37.163c1.3054 0 2.4046 0.68134 2.5477 1.5573l1.294 14.657c0 1.4514-1.709 2.628-3.8418 2.628-2.1443 0-3.8419-1.1766-3.8419-2.628l1.3054-14.657c0.13751-0.87601 1.231-1.5573 2.5365-1.5573"/>
	<path d="m211.72 32.589c0.68405-1.1365 1.8034-1.7434 2.6365-1.4142l13.375 6.2065c1.2425 0.71855 1.4286 2.7883 0.37794 4.6377-1.0735 1.835-2.9659 2.7082-4.2197 1.9896l-12.084-8.4509c-0.66991-0.56969-0.71849-1.8408-0.07164-2.9687"/>
	<path d="m195.85 32.577c0.64685 1.1422 0.60963 2.4104-0.08876 2.983l-12.081 8.4366c-1.2567 0.73287-3.1376-0.14314-4.2139-1.9782-1.0735-1.8465-0.856-3.9191 0.37497-4.6377l13.375-6.2065c0.856-0.32635 1.9753 0.27483 2.6339 1.4028"/>
	<path d="m231.65 42.723h0.16615c0.2261 0 0.31767 0.071568 0.34352 0.25193 0.048584 0.20039 0.074432 0.33494 0.12302 0.3922h0.42949c-0.037231-0.042942-0.085968-0.15173-0.11166-0.40365-0.048752-0.21757-0.1604-0.34067-0.31783-0.38361v-0.040077c0.21753-0.048668 0.34352-0.19467 0.34352-0.37502 0-0.16318-0.074448-0.28055-0.14888-0.35498-0.1431-0.068706-0.28044-0.1231-0.58394-0.1231-0.26909 0-0.46671 0.0229-0.62413 0.060116v1.6203h0.38074v-0.64412zm0.01152-0.73859 0.19466-0.025764c0.22906 0 0.35208 0.10592 0.35208 0.25479 0 0.16604-0.166 0.24333-0.37778 0.24333h-0.16896v-0.47235zm0.24341-1.0993c-0.939 0-1.6833 0.73287-1.6833 1.6318 0 0.92181 0.74435 1.6547 1.6833 1.6547 0.95035 0 1.6718-0.73287 1.6718-1.6547 0-0.89891-0.72145-1.6318-1.6718-1.6318m0 0.32922c0.72128 0 1.2567 0.584 1.2567 1.3026 0 0.72427-0.53537 1.3255-1.2567 1.314-0.72147 0-1.2684-0.58973-1.2684-1.314 0-0.71856 0.54691-1.3026 1.2568-1.3026"/>
</g>
</svg>
